<svg width="13" height="20" viewBox="0 0 13 20" fill="none" xmlns="http://www.w3.org/2000/svg">
<path d="M0.3125 11.2453C0.3125 13.2625 1.17734 14.1293 2.5 14.55V16.25H10V14.55C11.3227 14.1293 12.1875 13.2609 12.1875 11.2453C12.1875 10.0496 11.7684 8.62422 11.1449 7.23906L7.22656 11.1582C7.16796 11.2168 7.08851 11.2497 7.00566 11.2497C6.92282 11.2497 6.84336 11.2168 6.78477 11.1582L6.34297 10.7164C6.28441 10.6578 6.25151 10.5784 6.25151 10.4955C6.25151 10.4127 6.28441 10.3332 6.34297 10.2746L10.5574 6.05859C9.74492 4.57773 8.74219 3.24219 7.78906 2.4418C8.33594 2.3082 8.75 1.83789 8.75 1.25C8.75 0.918479 8.6183 0.600537 8.38388 0.366117C8.14946 0.131696 7.83152 0 7.5 0L5 0C4.66848 0 4.35054 0.131696 4.11612 0.366117C3.8817 0.600537 3.75 0.918479 3.75 1.25C3.75 1.83594 4.16406 2.3082 4.71094 2.4418C2.64883 4.17187 0.3125 8.37891 0.3125 11.2453ZM11.875 17.5H0.625C0.45924 17.5 0.300269 17.5658 0.183058 17.6831C0.065848 17.8003 0 17.9592 0 18.125L0 19.375C0 19.5408 0.065848 19.6997 0.183058 19.8169C0.300269 19.9342 0.45924 20 0.625 20H11.875C12.0408 20 12.1997 19.9342 12.3169 19.8169C12.4342 19.6997 12.5 19.5408 12.5 19.375V18.125C12.5 17.9592 12.4342 17.8003 12.3169 17.6831C12.1997 17.5658 12.0408 17.5 11.875 17.5Z" fill="white"/>
</svg>
