<svg width="18" height="20" viewBox="0 0 18 20" fill="none" xmlns="http://www.w3.org/2000/svg">
<path d="M15.624 17.5H1.87403C1.70827 17.5 1.5493 17.5658 1.43209 17.6831C1.31488 17.8003 1.24903 17.9592 1.24903 18.125V19.375C1.24903 19.5408 1.31488 19.6997 1.43209 19.8169C1.5493 19.9342 1.70827 20 1.87403 20H15.624C15.7898 20 15.9488 19.9342 16.066 19.8169C16.1832 19.6997 16.249 19.5408 16.249 19.375V18.125C16.249 17.9592 16.1832 17.8003 16.066 17.6831C15.9488 17.5658 15.7898 17.5 15.624 17.5ZM16.249 6.25H9.99903V4.375H11.5615C11.6444 4.375 11.7239 4.34208 11.7825 4.28347C11.8411 4.22487 11.874 4.14538 11.874 4.0625V2.1875C11.874 2.10462 11.8411 2.02513 11.7825 1.96653C11.7239 1.90792 11.6444 1.875 11.5615 1.875H9.99903V0.3125C9.99903 0.22962 9.96611 0.150134 9.9075 0.0915291C9.8489 0.032924 9.76941 0 9.68653 0L7.81153 0C7.72865 0 7.64916 0.032924 7.59056 0.0915291C7.53195 0.150134 7.49903 0.22962 7.49903 0.3125V1.875H5.93653C5.85365 1.875 5.77416 1.90792 5.71556 1.96653C5.65695 2.02513 5.62403 2.10462 5.62403 2.1875V4.0625C5.62403 4.14538 5.65695 4.22487 5.71556 4.28347C5.77416 4.34208 5.85365 4.375 5.93653 4.375H7.49903V6.25H1.24903C1.05306 6.25015 0.859863 6.29638 0.685048 6.38495C0.510232 6.47353 0.358691 6.60196 0.242657 6.75989C0.126624 6.91782 0.0493493 7.10082 0.0170715 7.29412C-0.0152063 7.48742 -0.00158301 7.68559 0.0568417 7.87266L2.91153 16.25H14.5865L17.4412 7.87266C17.4996 7.68559 17.5133 7.48742 17.481 7.29412C17.4487 7.10082 17.3714 6.91782 17.2554 6.75989C17.1394 6.60196 16.9878 6.47353 16.813 6.38495C16.6382 6.29638 16.445 6.25015 16.249 6.25Z" fill="#FF0000"/>
</svg>
