<svg width="27" height="35" viewBox="0 0 27 35" fill="none" xmlns="http://www.w3.org/2000/svg">
<path d="M12.3958 1.28241C12.3958 0.387838 13.1586 -0.231363 13.8736 0.0827323L23.1749 4.16853C25.0249 4.98114 26.2504 7.05275 26.2504 9.36713V14.9514C26.2504 15.846 25.4877 16.4652 24.7726 16.1511L14.5833 11.6747V26.4803C14.5833 26.5736 14.5748 26.6645 14.5587 26.7521C14.5747 26.9432 14.5833 27.1377 14.5833 27.3345C14.5833 31.1948 11.2645 34.1678 7.29167 34.1678C3.31887 34.1678 0 31.1948 0 27.3345C0 23.4742 3.31887 20.5012 7.29167 20.5012C9.26351 20.5012 11.0743 21.2336 12.3981 22.4433L12.3958 1.28241Z" fill="#212121"/>
</svg>
