<svg width="16" height="20" viewBox="0 0 16 20" fill="none" xmlns="http://www.w3.org/2000/svg">
<path d="M0 20L0.811 16.757C0.865172 16.5408 0.990048 16.3488 1.16579 16.2117C1.34154 16.0745 1.55807 16 1.781 16H4L5 6H3C2.73478 6 2.48043 5.89464 2.29289 5.70711C2.10536 5.51957 2 5.26522 2 5V0H4V2H6V0H10V2H12V0H14V5C14 5.26522 13.8946 5.51957 13.7071 5.70711C13.5196 5.89464 13.2652 6 13 6H11L12 16H14.219C14.4419 16 14.6585 16.0745 14.8342 16.2117C15.01 16.3488 15.1348 16.5408 15.189 16.757L16 20H0Z" fill="#FFE600"/>
</svg>
