<svg width="67" height="67" viewBox="0 0 67 67" fill="none" xmlns="http://www.w3.org/2000/svg">
<g clip-path="url(#clip0_4_2)">
<path d="M60.6164 29.2567L54.3817 27.3956C53.9506 25.8905 53.3578 24.4366 52.6136 23.0592L55.6658 17.3456C55.7804 17.1299 55.8223 16.8831 55.7854 16.6417C55.7485 16.4003 55.6348 16.1772 55.4611 16.0056L51.0131 11.5389C50.8414 11.3652 50.6184 11.2515 50.377 11.2146C50.1356 11.1777 49.8887 11.2197 49.6731 11.3342L43.9967 14.3678C42.6057 13.5874 41.1327 12.9632 39.6045 12.5067L37.7433 6.34641C37.6646 6.11938 37.5159 5.92319 37.3186 5.78607C37.1212 5.64895 36.8855 5.57797 36.6453 5.58335H30.3547C30.113 5.58448 29.878 5.6627 29.6839 5.80664C29.4897 5.95057 29.3466 6.15271 29.2753 6.38363L27.4142 12.5253C25.8732 12.9794 24.3876 13.6036 22.9847 14.3864L17.4014 11.3714C17.1857 11.2569 16.9389 11.2149 16.6975 11.2518C16.4561 11.2887 16.233 11.4024 16.0614 11.5761L11.5389 15.987C11.3652 16.1586 11.2515 16.3817 11.2146 16.6231C11.1777 16.8644 11.2196 17.1113 11.3342 17.327L14.3492 22.9103C13.5676 24.3072 12.9434 25.7866 12.4881 27.3211L6.32778 29.1822C6.09686 29.2536 5.89472 29.3967 5.75079 29.5908C5.60685 29.785 5.52863 30.02 5.5275 30.2617V36.5522C5.52863 36.7939 5.60685 37.0289 5.75079 37.2231C5.89472 37.4172 6.09686 37.5604 6.32778 37.6317L12.5253 39.4928C12.9856 41.0018 13.6097 42.4559 14.3864 43.8292L11.3342 49.6731C11.2196 49.8887 11.1777 50.1356 11.2146 50.377C11.2515 50.6184 11.3652 50.8414 11.5389 51.0131L15.9869 55.4611C16.1586 55.6348 16.3816 55.7486 16.623 55.7854C16.8644 55.8223 17.1113 55.7804 17.3269 55.6659L23.0778 52.595C24.4382 53.3291 25.8732 53.9156 27.3583 54.3445L29.2194 60.6164C29.2908 60.8473 29.4339 61.0495 29.6281 61.1934C29.8222 61.3373 30.0572 61.4156 30.2989 61.4167H36.5895C36.8311 61.4156 37.0661 61.3373 37.2603 61.1934C37.4544 61.0495 37.5976 60.8473 37.6689 60.6164L39.53 54.3259C41.0025 53.8947 42.4249 53.3083 43.7733 52.5764L49.5614 55.6659C49.7771 55.7804 50.0239 55.8223 50.2653 55.7854C50.5067 55.7486 50.7298 55.6348 50.9014 55.4611L55.3495 51.0131C55.5231 50.8414 55.6369 50.6184 55.6738 50.377C55.7106 50.1356 55.6687 49.8887 55.5542 49.6731L52.4647 43.9036C53.2043 42.55 53.797 41.1213 54.2328 39.6417L60.5047 37.7806C60.7356 37.7093 60.9378 37.5661 61.0817 37.372C61.2257 37.1778 61.3039 36.9428 61.305 36.7011V30.3547C61.316 30.1233 61.2559 29.8941 61.1328 29.6978C61.0097 29.5015 60.8295 29.3476 60.6164 29.2567ZM33.5 43.7361C31.4755 43.7361 29.4964 43.1358 27.8131 42.011C26.1298 40.8863 24.8178 39.2876 24.0431 37.4172C23.2683 35.5468 23.0656 33.4887 23.4606 31.5031C23.8555 29.5174 24.8304 27.6935 26.262 26.262C27.6935 24.8305 29.5174 23.8556 31.503 23.4606C33.4887 23.0656 35.5468 23.2683 37.4172 24.0431C39.2876 24.8178 40.8863 26.1298 42.011 27.8131C43.1358 29.4965 43.7361 31.4755 43.7361 33.5C43.7361 36.2148 42.6577 38.8184 40.738 40.738C38.8184 42.6577 36.2148 43.7361 33.5 43.7361Z" fill="black"/>
</g>
<defs>
<clipPath id="clip0_4_2">
<rect width="67" height="67" fill="white"/>
</clipPath>
</defs>
</svg>
