<svg width="60" height="60" viewBox="0 0 60 60" fill="none" xmlns="http://www.w3.org/2000/svg">
<path d="M18.75 12.5H12.5V27.5H47.5V12.5H41.25V20C41.25 20.6904 40.6903 21.25 40 21.25C39.3097 21.25 38.75 20.6904 38.75 20V12.5H35V23.75C35 24.4404 34.4403 25 33.75 25C33.0597 25 32.5 24.4404 32.5 23.75V12.5H21.25V17.5C21.25 18.1904 20.6904 18.75 20 18.75C19.3096 18.75 18.75 18.1904 18.75 17.5V12.5Z" fill="black"/>
<path d="M12.5 32.5V30H47.5V32.5C47.5 35.2615 45.2615 37.5 42.5 37.5H35V45C35 47.7615 32.7615 50 30 50C27.2385 50 25 47.7615 25 45V37.5H17.5C14.7386 37.5 12.5 35.2615 12.5 32.5Z" fill="black"/>
</svg>
